<svg xmlns="http://www.w3.org/2000/svg" xmlns:xlink="http://www.w3.org/1999/xlink" width="12" height="12" version="1.1" viewBox="0 0 12 12"><title>bold</title><desc>Created with Sketch.</desc><g id="bold" fill="none" fill-rule="evenodd" stroke="none" stroke-width="1"><path id="B" fill="#50E3C2" d="M7.40593343,5.70332851 C8.54920405,5.92040521 9.69247467,6.45586107 9.69247467,8.12011577 C9.69247467,10.3198263 7.94138929,11 5.51013025,11 L2.5,11 L2.5,1 L5.11939219,1 C7.69536903,1 9.25832127,1.723589 9.25832127,3.54703329 C9.25832127,4.79160637 8.36107091,5.50072359 7.40593343,5.70332851 Z M5.30439327,2.40376266 L4.40714291,2.40376266 L4.40714291,5.10998553 L5.57935709,5.10998553 C6.62132526,5.10998553 7.30149892,4.64688857 7.30149892,3.70622287 C7.30149892,2.69319826 6.60685348,2.40376266 5.30439327,2.40376266 Z M5.52460203,9.56729378 C6.78364689,9.56729378 7.69536903,9.30680174 7.69536903,8.04775687 C7.69536903,6.84659913 6.84153401,6.44138929 5.72720695,6.44138929 L4.41027496,6.44138929 L4.41027496,9.56729378 L5.52460203,9.56729378 Z"/></g></svg>