<svg xmlns="http://www.w3.org/2000/svg" xmlns:xlink="http://www.w3.org/1999/xlink" width="29" height="24" version="1.1" viewBox="0 0 29 24"><title>gitlab-button</title><desc>Created with Sketch.</desc><g id="Page-1" fill="none" fill-rule="evenodd" stroke="none" stroke-width="1"><g id="gitlab-button"><path id="path46" fill="#FF998A" d="M26.2386159,10.4338119 L24.906109,14.5347407 L22.2652709,22.6625237 C22.129435,23.0806687 21.5378043,23.0806687 21.4019039,22.6625237 L18.5484734,14.0035384 L10.0092424,14.0035384 L7.35065738,22.6625237 C7.2148215,23.0806687 6.62319074,23.0806687 6.48729038,22.6625237 L3.84645235,14.5347407 L2.51400989,10.4338119 C2.39242162,10.0597636 2.52561429,9.64999949 2.84376813,9.41881411 L14.3762807,1.03998942 L25.9088577,9.41881411 C26.2270115,9.64999949 26.3601397,10.0597636 26.2386159,10.4338119" transform="translate(14.376299, 12.008061) scale(1, -1) translate(-14.376299, -12.008061)"/><polygon id="path50" fill="#FFF" points="19.033 22.976 9.983 22.976 14.376 10.007" transform="translate(14.508270, 16.491657) scale(1, -1) translate(-14.508270, -16.491657)"/><polygon id="path58" fill="#FFC6BD" points="14.376 9.481 9.992 22.976 3.846 22.976" transform="translate(9.111392, 16.228763) scale(1, -1) translate(-9.111392, -16.228763)"/><path id="path66" fill="#FF998A" d="M3.84647812,22.9760873 L3.84647812,22.9760873 L2.51397119,18.8751584 C2.39244739,18.5011101 2.52557559,18.091346 2.8437939,17.8602251 L14.3763064,9.48140045 L3.84647812,22.9760873 L3.84647812,22.9760873 Z" transform="translate(8.422894, 16.228744) scale(1, -1) translate(-8.422894, -16.228744)"/><path id="path74" fill="#FFF" d="M3.59428061,1.03997329 L11.0167084,1.03997329 L7.35068318,9.68881602 C7.21478282,10.1070255 6.62315206,10.1070255 6.48731617,9.68881602 L3.59428061,1.03997329 Z" transform="translate(7.305495, 5.521223) scale(1, -1) translate(-7.305495, -5.521223)"/><polygon id="path78" fill="#FFC6BD" points="14.376 9.481 18.761 22.976 24.906 22.976" transform="translate(19.641221, 16.228763) scale(1, -1) translate(-19.641221, -16.228763)"/><path id="path82" fill="#FF998A" d="M24.9061283,22.9760873 L24.9061283,22.9760873 L26.2386352,18.8751584 C26.360159,18.5011101 26.2270309,18.091346 25.9088126,17.8602251 L14.3763,9.48140045 L24.9061283,22.9760873 L24.9061283,22.9760873 Z" transform="translate(20.329712, 16.228744) scale(1, -1) translate(-20.329712, -16.228744)"/><path id="path86" fill="#FFF" d="M25.0656275,1.03997329 L17.991121,1.03997329 L21.4019233,9.70824842 C21.5378236,10.1264579 22.1294544,10.1264579 22.2652903,9.70824842 L25.0656275,1.03997329 Z" transform="translate(21.528374, 5.530939) scale(1, -1) translate(-21.528374, -5.530939)"/></g></g></svg>