<svg xmlns="http://www.w3.org/2000/svg" xmlns:xlink="http://www.w3.org/1999/xlink" width="16" height="16" version="1.1" viewBox="0 0 16 16"><title>important</title><desc>Created with Sketch.</desc><g id="important" fill="none" fill-rule="evenodd" stroke="none" stroke-width="1"><path id="Path-321" fill="#50E3C2" d="M7.47104725,1 L8.52894658,1 C9.08033812,1 9.51777138,1.44867541 9.49944462,2.00214458 L9.21973243,10.4494683 C9.20141948,11.0025202 8.74211962,11.4516129 8.19388832,11.4516129 L7.8061031,11.4516129 C7.27100131,11.4516129 6.79858586,11.0029375 6.78025923,10.4494683 L6.50054898,2.00214458 C6.48223616,1.44909274 6.91672922,1 7.47104725,1 Z M8.00500011,15.4029032 C7.2345629,15.4029032 6.61000013,14.7783404 6.61000013,14.0079032 C6.61000013,13.237466 7.2345629,12.6129032 8.00500011,12.6129032 C8.77543733,12.6129032 9.4000001,13.237466 9.4000001,14.0079032 C9.4000001,14.7783404 8.77543733,15.4029032 8.00500011,15.4029032 Z"/></g></svg>