<svg xmlns="http://www.w3.org/2000/svg" xmlns:xlink="http://www.w3.org/1999/xlink" width="16" height="16" version="1.1" viewBox="0 0 16 16"><title>inactive-user</title><desc>Created with Sketch.</desc><g id="inactive-user" fill="none" fill-rule="evenodd" stroke="none" stroke-width="1"><path id="Combined-Shape" fill="#50E3C2" d="M3.76545098,14.9643787 L9.52706541,9.20276424 L9.53662527,10.2434744 C9.53662527,10.2434744 9.85818398,10.4279021 11.2155128,10.9927865 C12.5728415,11.5584145 12.1470216,11.1354205 13.2528445,11.6881089 C15,12.561761 15,14.9643787 15,14.9643787 L8.01018815,14.9643787 L3.76545098,14.9643787 Z M5.864355,7.66845316 C5.8435167,7.5659126 5.82514408,7.4560882 5.80999479,7.33858853 C5.49185692,7.43095114 5.38685209,6.96333755 5.36811185,6.66557596 C5.35100766,6.37807689 5.18398156,5.47973526 5.5720235,5.56079423 C5.49260058,4.96095783 5.4356362,4.42016807 5.46359783,4.13356139 C5.5608686,3.12768647 6.52509853,2.07674574 8.01033688,2 C9.23475762,2.05368438 9.94096723,2.58568938 10.287343,3.24546519 L5.864355,7.66845316 Z"/><polygon id="Line" fill="#50E3C2" fill-rule="nonzero" points="13.786 1.453 14.493 2.16 2.138 14.596 1.431 13.889"/></g></svg>