<svg xmlns="http://www.w3.org/2000/svg" xmlns:xlink="http://www.w3.org/1999/xlink" width="42" height="36" version="1.1" viewBox="0 0 42 36"><title>logo</title><desc>Created with Sketch.</desc><g id="Page-1" fill="none" fill-rule="evenodd" stroke="none" stroke-width="1"><g id="logo"><g id="Shape" transform="translate(1.000000, 0.000000)"><polygon fill="#CA2317" points="27.337 12.6 36.72 9.72 31.163 13.252"/><polygon fill="#E84F83" points="33.053 19.62 31.163 13.252 36.72 9.72 35.055 15.435"/><polygon fill="#CA2317" points="39.465 7.987 38.43 9.72 35.055 15.435 36.72 9.72"/><polygon fill="#E54011" points="39.803 9.113 37.193 11.79 38.43 9.72"/><polygon fill="#E54011" points="27.9 10.822 35.572 10.057 30.24 11.7"/><polygon fill="#CA2317" points="28.192 15.165 31.163 13.252 33.053 19.62 32.063 21.645"/><polygon fill="#B7DFF2" points="23.76 22.725 22.343 5.4 32.063 21.645"/><polygon fill="#E54011" points="19.733 27.157 23.76 22.725 32.063 21.645"/><polygon fill="#FFCE33" points=".158 35.865 19.733 27.157 23.76 22.725 17.37 22.073"/><polygon fill="#D6B12D" points=".9 28.755 10.957 27.225 14.085 24.705 12.555 24.03"/><polygon fill="#FFDE85" points="4.522 20.543 14.085 24.705 17.37 22.073"/><polygon fill="#009EC6" points="21.622 11.678 20.407 11.88 17.37 22.073 20.655 20.003"/><polygon fill="#5EAFCE" points="23.4 18.247 20.655 20.003 22.343 5.4"/><polygon fill="#045972" points="13.027 13.05 21.622 11.678 22.005 8.28"/><polygon fill="#5A8591" points="12.105 5.085 19.575 9.585 22.005 8.28 22.073 7.808"/><polygon fill="#009EC6" points="13.568 .18 20.363 7.335 22.073 7.808 22.343 5.4"/><polygon fill="#F39804" points="17.37 22.073 23.4 18.247 23.76 22.725"/></g></g></g></svg>