<svg xmlns="http://www.w3.org/2000/svg" xmlns:xlink="http://www.w3.org/1999/xlink" width="16" height="16" version="1.1" viewBox="0 0 16 16"><title>low-priority</title><desc>Created with Sketch.</desc><g id="low-priority" fill="none" fill-rule="evenodd" stroke="none" stroke-width="1"><path id="arrow-right" fill="#50E3C2" d="M11.4914284,8.64886009 L8.34261697,11.7642944 C7.95200607,12.1507648 7.95468617,12.7856211 8.34127823,13.1749095 L8.24859245,13.0815773 C8.63846399,13.4741681 9.26757506,13.4802837 9.65915263,13.0898514 L14.3924906,8.37035796 C14.78165,7.98233688 14.7840682,7.35600827 14.3924906,6.96603474 L9.65915263,2.25208607 C9.26999329,1.86452086 8.63518452,1.85910791 8.23318005,2.24781591 L8.35669064,2.12839049 C7.95830707,2.51359735 7.95091218,3.13868442 8.34261697,3.52698357 L11.4914284,6.64841793 L2.27343742,6.64841793 C1.72216358,6.64841793 1.27526784,7.09238089 1.27526784,7.64863901 L1.27526784,7.64863901 C1.27526784,8.20104586 1.71424349,8.64886009 2.27343742,8.64886009 L11.4914284,8.64886009 Z" transform="translate(7.980268, 7.669105) rotate(90.000000) translate(-7.980268, -7.669105)"/></g></svg>