<svg xmlns="http://www.w3.org/2000/svg" xmlns:xlink="http://www.w3.org/1999/xlink" width="12" height="12" version="1.1" viewBox="0 0 12 12"><title>strikethrough</title><desc>Created with Sketch.</desc><g id="strikethrough" fill="none" fill-rule="evenodd" stroke="none" stroke-width="1"><rect id="Rectangle-11" width="10" height="1" x="1" y="6" fill="#50E3C2"/><path id="S" fill="#50E3C2" d="M6.07483152,1 C7.39505624,1 8.22370792,1.39325843 9.01022478,2.10955056 L8.35011242,2.85393258 C7.61977534,2.26404494 6.94561803,2.01123596 6.13101129,2.01123596 C5.10573039,2.01123596 4.33325848,2.50280899 4.33325848,3.44382022 C4.33325848,4.3005618 4.74056185,4.70786517 6.48213489,5.24157303 C8.06921354,5.71910112 9.31921354,6.33707865 9.31921354,8.1488764 C9.31921354,9.83426966 8.0551686,11 5.93438208,11 C4.55797759,11 3.49056185,10.5365169 2.69000006,9.76404494 L3.3782023,8.99157303 C4.09449444,9.60955056 4.85292141,9.98876404 5.92033714,9.98876404 C7.10011242,9.98876404 8.0551686,9.38483146 8.0551686,8.19101124 C8.0551686,7.19382022 7.57764051,6.75842697 5.92033714,6.25280899 C4.02426972,5.67696629 3.08325848,4.96067416 3.08325848,3.48595506 C3.08325848,2.03932584 4.31921354,1 6.07483152,1 Z"/></g></svg>