<svg xmlns="http://www.w3.org/2000/svg" xmlns:xlink="http://www.w3.org/1999/xlink" width="17" height="17" version="1.1" viewBox="0 0 17 17"><title>telegram</title><desc>Created with Sketch.</desc><g id="Page-1" fill="none" fill-rule="evenodd" stroke="none" stroke-width="1"><g id="telegram" fill="#50E3C2"><path id="Combined-Shape" fill-rule="nonzero" d="M5.89559244,9.6517637 L6.61811417,12.0296604 C6.7130875,12.2918571 6.666295,12.3958333 6.94166667,12.3958333 C7.15416667,12.3958333 7.24805625,12.29865 7.36666667,12.1833333 L8.38762668,11.1905773 L10.5116667,12.7598458 C10.9025604,12.9755262 11.1846825,12.8638575 11.28205,12.3969312 L12.6764042,5.82621875 C12.8191617,5.25387125 12.4582304,4.99428125 12.08428,5.16405458 L3.896655,8.32116708 C3.33777292,8.54533333 3.34103125,8.85713458 3.7947825,8.99606708 L5.89559244,9.6517637 Z M8.5,17 C3.80557963,17 0,13.1944204 0,8.5 C0,3.80557963 3.80557963,0 8.5,0 C13.1944204,0 17,3.80557963 17,8.5 C17,13.1944204 13.1944204,17 8.5,17 Z"/><path id="Combined-Shape" fill-opacity=".08" fill-rule="nonzero" d="M6.94166667,12.3958333 C6.666295,12.3958333 6.7130875,12.2918571 6.61811417,12.0296604 L5.80833333,9.36458458 L12.0416667,5.66666667"/><path id="Shape" fill-opacity=".13" d="M6.94166667,12.3958333 C7.15416667,12.3958333 7.24805625,12.29865 7.36666667,12.1833333 L8.5,11.0813083 L7.08630833,10.2288292"/></g></g></svg>