<svg xmlns="http://www.w3.org/2000/svg" xmlns:xlink="http://www.w3.org/1999/xlink" width="17" height="17" version="1.1" viewBox="0 0 17 17"><title>web</title><desc>Created with Sketch.</desc><g id="Page-1" fill="none" fill-rule="evenodd" stroke="none" stroke-width="1"><g id="web" fill="#50E3C2"><g id="Group" transform="translate(0.000000, 1.000000)"><polygon id="Shape" points="11.669 5.379 15.675 4.149 13.302 5.657"/><polygon id="Shape" points="14.109 8.375 13.302 5.657 15.675 4.149 14.964 6.589"/><polygon id="Shape" points="16.846 3.41 16.405 4.149 14.964 6.589 15.675 4.149"/><polygon id="Shape" points="16.99 3.89 15.876 5.033 16.405 4.149"/><polygon id="Shape" points="11.91 4.62 15.185 4.293 12.908 4.994"/><polygon id="Shape" points="12.034 6.473 13.302 5.657 14.109 8.375 13.686 9.24"/><polygon id="Shape" points="10.142 9.701 9.537 2.305 13.686 9.24"/><polygon id="Shape" points="8.423 11.593 10.142 9.701 13.686 9.24"/><polygon id="Shape" points=".067 15.31 8.423 11.593 10.142 9.701 7.415 9.422"/><polygon id="Shape" points=".384 12.275 4.677 11.621 6.012 10.546 5.359 10.258"/><polygon id="Shape" points="1.931 8.769 6.012 10.546 7.415 9.422"/><polygon id="Shape" points="9.23 4.985 8.711 5.071 7.415 9.422 8.817 8.538"/><polygon id="Shape" points="9.989 7.789 8.817 8.538 9.537 2.305"/><polygon id="Shape" points="5.561 5.571 9.23 4.985 9.393 3.534"/><polygon id="Shape" points="5.167 2.171 8.356 4.092 9.393 3.534 9.422 3.333"/><polygon id="Shape" points="5.792 .077 8.692 3.131 9.422 3.333 9.537 2.305"/><polygon id="Shape" points="7.415 9.422 9.989 7.789 10.142 9.701"/></g></g></g></svg>