<svg xmlns="http://www.w3.org/2000/svg" xmlns:xlink="http://www.w3.org/1999/xlink" width="200" height="200" version="1.1" viewBox="0 0 200 200"><title>knowledge_base_grid</title><desc>Created with Sketch.</desc><g id="knowledge_base_grid" fill="none" fill-rule="evenodd" stroke="none" stroke-width="1"><rect width="200" height="200" x="0" y="0" fill="#E6E7E8"/><rect id="Rectangle-Copy-5" width="46" height="46" x="20" y="20" fill="#FFF"/><rect id="Rectangle-Copy-2" width="46" height="1" x="20" y="66" fill="#EBEBEB"/><rect id="Rectangle-Copy-3" width="46" height="1" x="77" y="66" fill="#EBEBEB"/><rect id="Rectangle-Copy-4" width="46" height="1" x="134" y="66" fill="#EBEBEB"/><rect id="Rectangle-Copy-16" width="46" height="1" x="20" y="123" fill="#EBEBEB"/><rect id="Rectangle-Copy-15" width="46" height="1" x="77" y="123" fill="#EBEBEB"/><rect id="Rectangle-Copy-14" width="46" height="1" x="134" y="123" fill="#EBEBEB"/><rect id="Rectangle-Copy-19" width="46" height="1" x="20" y="180" fill="#EBEBEB"/><rect id="Rectangle-Copy-18" width="46" height="1" x="77" y="180" fill="#EBEBEB"/><rect id="Rectangle-Copy-17" width="46" height="1" x="134" y="180" fill="#EBEBEB"/><rect id="Rectangle-Copy-6" width="46" height="46" x="77" y="20" fill="#FFF"/><rect id="Rectangle-Copy-9" width="46" height="46" x="134" y="20" fill="#FFF"/><rect id="Rectangle-Copy-8" width="46" height="46" x="20" y="77" fill="#FFF"/><rect id="Rectangle-Copy-7" width="46" height="46" x="77" y="77" fill="#FFF"/><rect id="Rectangle-Copy-10" width="46" height="46" x="134" y="77" fill="#FFF"/><rect id="Rectangle-Copy-13" width="46" height="46" x="20" y="134" fill="#FFF"/><rect id="Rectangle-Copy-12" width="46" height="46" x="77" y="134" fill="#FFF"/><rect id="Rectangle-Copy-11" width="46" height="46" x="134" y="134" fill="#FFF"/></g></svg>