<svg xmlns="http://www.w3.org/2000/svg" xmlns:xlink="http://www.w3.org/1999/xlink" width="200" height="200" version="1.1" viewBox="0 0 200 200"><title>knowledge_base_accordion</title><desc>Created with Sketch.</desc><g id="knowledge_base_accordion" fill="none" fill-rule="evenodd" stroke="none" stroke-width="1"><rect width="200" height="200" x="0" y="0" fill="#E6E7E8"/><rect id="Rectangle-Copy-4" width="160" height="20" x="20" y="100" fill="#FFF"/><rect id="Rectangle-Copy-6" width="160" height="20" x="20" y="120" fill="#FFF"/><rect id="Rectangle-Copy-7" width="160" height="20" x="20" y="140" fill="#FFF"/><rect id="Rectangle-Copy-8" width="160" height="20" x="20" y="160" fill="#FFF"/><rect id="Rectangle-Copy-5" width="160" height="20" x="20" y="20" fill="#FFF"/><rect id="Rectangle-Copy-17" width="160" height="1" x="20" y="179" fill="#EBEBEB"/><rect id="Rectangle-Copy-18" width="160" height="1" x="20" y="159" fill="#EBEBEB"/><rect id="Rectangle-Copy-19" width="160" height="1" x="20" y="139" fill="#EBEBEB"/><rect id="Rectangle-Copy-20" width="160" height="1" x="20" y="119" fill="#EBEBEB"/><rect id="Rectangle-Copy" width="160" height="20" x="20" y="40" fill="#CFD0D1"/><rect id="Rectangle-Copy-2" width="160" height="20" x="20" y="60" fill="#CFD0D1"/><rect id="Rectangle-Copy-3" width="160" height="20" x="20" y="80" fill="#CFD0D1"/><rect id="Rectangle-Copy-21" width="160" height="1" x="20" y="99" fill="#E6E6E6"/><rect id="Rectangle-Copy-22" width="160" height="1" x="20" y="79" fill="#E6E6E6"/><rect id="Rectangle-Copy-23" width="160" height="1" x="20" y="59" fill="#E6E6E6"/><rect id="Rectangle-Copy-24" width="160" height="1" x="20" y="39" fill="#EBEBEB"/></g></svg>